<svg width="61" height="28" viewBox="0 0 61 28" fill="none" xmlns="http://www.w3.org/2000/svg">
<path d="M0.162109 23.4497V2.0083H5.28669V10.8672L15.3295 2.0083H21.3139L13.9538 8.73503L22.4833 23.4497H16.8428L10.6176 12.669H9.7234L5.28669 16.5428V23.4497H0.162109Z" fill="#E6E6E6"/>
<path d="M27.1583 27.684H23.1343L33.521 0.656952H37.4418L27.1583 27.684Z" fill="#E6E6E6"/>
<path d="M55.642 16.6029H60.9729C60.6061 18.7851 59.5055 20.5368 57.6712 21.8582C55.8598 23.1795 53.544 23.8401 50.7238 23.8401C47.0322 23.8401 44.1432 22.8291 42.0567 20.8071C39.9931 18.7651 38.9613 16.0724 38.9613 12.729C38.9613 9.38568 40.0046 6.703 42.0911 4.68098C44.1776 2.63893 47.0552 1.61791 50.7238 1.61791C53.4064 1.61791 55.642 2.22852 57.4304 3.44975C59.2189 4.65095 60.3195 6.25255 60.7322 8.25455H55.3668C54.7936 6.49279 53.2459 5.61191 50.7238 5.61191C48.6143 5.61191 46.9978 6.28258 45.8743 7.62392C44.7738 8.94524 44.2235 10.6469 44.2235 12.729C44.2235 14.8111 44.7738 16.5228 45.8743 17.8642C46.9978 19.1855 48.6143 19.8461 50.7238 19.8461C52.0307 19.8461 53.1084 19.5659 53.9567 19.0053C54.828 18.4247 55.3898 17.6239 55.642 16.6029Z" fill="#E6E6E6"/>
</svg>
